<?xml version="1.0" encoding="utf-8"?> <!-- Generator: IcoMoon.io --> <!DOCTYPE svg PUBLIC "-//W3C//DTD SVG 1.1//EN" "http://www.w3.org/Graphics/SVG/1.1/DTD/svg11.dtd"> <svg width="500.00000000000006" height="500" viewBox="0 0 500 500" data-tags="camera, picture, photo, images" style="margin-left: 2px; margin-top: 2px;" xmlns="http://www.w3.org/2000/svg" xmlns:xlink="http://www.w3.org/1999/xlink"><g><line x1="25" x2="25" y1="0" y2="500" stroke="#B35047"></line><line x1="50" x2="50" y1="0" y2="500" stroke="#B35047"></line><line x1="75" x2="75" y1="0" y2="500" stroke="#B35047"></line><line x1="100" x2="100" y1="0" y2="500" stroke="#B35047"></line><line x1="125" x2="125" y1="0" y2="500" stroke="#B35047"></line><line x1="150" x2="150" y1="0" y2="500" stroke="#B35047"></line><line x1="175" x2="175" y1="0" y2="500" stroke="#B35047"></line><line x1="200" x2="200" y1="0" y2="500" stroke="#B35047"></line><line x1="225" x2="225" y1="0" y2="500" stroke="#B35047"></line><line x1="250" x2="250" y1="0" y2="500" stroke="#B35047"></line><line x1="275" x2="275" y1="0" y2="500" stroke="#B35047"></line><line x1="300" x2="300" y1="0" y2="500" stroke="#B35047"></line><line x1="325" x2="325" y1="0" y2="500" stroke="#B35047"></line><line x1="350" x2="350" y1="0" y2="500" stroke="#B35047"></line><line x1="375" x2="375" y1="0" y2="500" stroke="#B35047"></line><line x1="400" x2="400" y1="0" y2="500" stroke="#B35047"></line><line x1="425" x2="425" y1="0" y2="500" stroke="#B35047"></line><line x1="450" x2="450" y1="0" y2="500" stroke="#B35047"></line><line x1="475" x2="475" y1="0" y2="500" stroke="#B35047"></line><line x1="0" x2="500" y1="25" y2="25" stroke="#B35047"></line><line x1="0" x2="500" y1="50" y2="50" stroke="#B35047"></line><line x1="0" x2="500" y1="75" y2="75" stroke="#B35047"></line><line x1="0" x2="500" y1="100" y2="100" stroke="#B35047"></line><line x1="0" x2="500" y1="125" y2="125" stroke="#B35047"></line><line x1="0" x2="500" y1="150" y2="150" stroke="#B35047"></line><line x1="0" x2="500" y1="175" y2="175" stroke="#B35047"></line><line x1="0" x2="500" y1="200" y2="200" stroke="#B35047"></line><line x1="0" x2="500" y1="225" y2="225" stroke="#B35047"></line><line x1="0" x2="500" y1="250" y2="250" stroke="#B35047"></line><line x1="0" x2="500" y1="275" y2="275" stroke="#B35047"></line><line x1="0" x2="500" y1="300" y2="300" stroke="#B35047"></line><line x1="0" x2="500" y1="325" y2="325" stroke="#B35047"></line><line x1="0" x2="500" y1="350" y2="350" stroke="#B35047"></line><line x1="0" x2="500" y1="375" y2="375" stroke="#B35047"></line><line x1="0" x2="500" y1="400" y2="400" stroke="#B35047"></line><line x1="0" x2="500" y1="425" y2="425" stroke="#B35047"></line><line x1="0" x2="500" y1="450" y2="450" stroke="#B35047"></line><line x1="0" x2="500" y1="475" y2="475" stroke="#B35047"></line><rect x="0" y="0" width="500" height="500" fill="none" stroke="#B35047"></rect></g><path d="M 250,200c-41.4,0-75,33.6-75,75c0,41.425, 33.6,75, 75,75c 41.425,0, 75-33.575, 75-75C 325,233.6, 291.425,200, 250,200z M 450,125l-59.975,0 c-8.25,0-17.15-6.4-19.75-14.225l-15.5-46.525C 352.125,56.4, 343.25,50, 335,50L 165,50 C 156.75,50, 147.85,56.4, 145.275,64.225L 129.725,110.775 C 127.125,118.6, 118.25,125, 110,125L 50,125 C 22.5,125,0,147.5,0,175l0,225 c0,27.5, 22.5,50, 50,50l 400,0 c 27.525,0, 50-22.5, 50-50L 500,175 C 500,147.5, 477.525,125, 450,125z M 250,400 c-69.050,0-125-55.95-125-125c0-69.025, 55.95-125, 125-125c 69.025,0, 125,55.975, 125,125C 375,344.050, 319.025,400, 250,400z M 432.5,209.95 c-9.65,0-17.475-7.825-17.475-17.5s 7.825-17.5, 17.475-17.5c 9.675,0, 17.5,7.825, 17.5,17.5S 442.175,209.95, 432.5,209.95z" ></path></svg>