<?xml version="1.0" encoding="utf-8"?> <!-- Generator: IcoMoon.io --> <!DOCTYPE svg PUBLIC "-//W3C//DTD SVG 1.1//EN" "http://www.w3.org/Graphics/SVG/1.1/DTD/svg11.dtd"> <svg width="500.00000000000006" height="500" viewBox="0 0 500 500" data-tags="facebook, social" style="margin-left: 2px; margin-top: 2px;" xmlns="http://www.w3.org/2000/svg" xmlns:xlink="http://www.w3.org/1999/xlink"><g><line x1="25" x2="25" y1="0" y2="500" stroke="#B35047"></line><line x1="50" x2="50" y1="0" y2="500" stroke="#B35047"></line><line x1="75" x2="75" y1="0" y2="500" stroke="#B35047"></line><line x1="100" x2="100" y1="0" y2="500" stroke="#B35047"></line><line x1="125" x2="125" y1="0" y2="500" stroke="#B35047"></line><line x1="150" x2="150" y1="0" y2="500" stroke="#B35047"></line><line x1="175" x2="175" y1="0" y2="500" stroke="#B35047"></line><line x1="200" x2="200" y1="0" y2="500" stroke="#B35047"></line><line x1="225" x2="225" y1="0" y2="500" stroke="#B35047"></line><line x1="250" x2="250" y1="0" y2="500" stroke="#B35047"></line><line x1="275" x2="275" y1="0" y2="500" stroke="#B35047"></line><line x1="300" x2="300" y1="0" y2="500" stroke="#B35047"></line><line x1="325" x2="325" y1="0" y2="500" stroke="#B35047"></line><line x1="350" x2="350" y1="0" y2="500" stroke="#B35047"></line><line x1="375" x2="375" y1="0" y2="500" stroke="#B35047"></line><line x1="400" x2="400" y1="0" y2="500" stroke="#B35047"></line><line x1="425" x2="425" y1="0" y2="500" stroke="#B35047"></line><line x1="450" x2="450" y1="0" y2="500" stroke="#B35047"></line><line x1="475" x2="475" y1="0" y2="500" stroke="#B35047"></line><line x1="0" x2="500" y1="25" y2="25" stroke="#B35047"></line><line x1="0" x2="500" y1="50" y2="50" stroke="#B35047"></line><line x1="0" x2="500" y1="75" y2="75" stroke="#B35047"></line><line x1="0" x2="500" y1="100" y2="100" stroke="#B35047"></line><line x1="0" x2="500" y1="125" y2="125" stroke="#B35047"></line><line x1="0" x2="500" y1="150" y2="150" stroke="#B35047"></line><line x1="0" x2="500" y1="175" y2="175" stroke="#B35047"></line><line x1="0" x2="500" y1="200" y2="200" stroke="#B35047"></line><line x1="0" x2="500" y1="225" y2="225" stroke="#B35047"></line><line x1="0" x2="500" y1="250" y2="250" stroke="#B35047"></line><line x1="0" x2="500" y1="275" y2="275" stroke="#B35047"></line><line x1="0" x2="500" y1="300" y2="300" stroke="#B35047"></line><line x1="0" x2="500" y1="325" y2="325" stroke="#B35047"></line><line x1="0" x2="500" y1="350" y2="350" stroke="#B35047"></line><line x1="0" x2="500" y1="375" y2="375" stroke="#B35047"></line><line x1="0" x2="500" y1="400" y2="400" stroke="#B35047"></line><line x1="0" x2="500" y1="425" y2="425" stroke="#B35047"></line><line x1="0" x2="500" y1="450" y2="450" stroke="#B35047"></line><line x1="0" x2="500" y1="475" y2="475" stroke="#B35047"></line><rect x="0" y="0" width="500" height="500" fill="none" stroke="#B35047"></rect></g><path d="M 250,10c-132.55,0-240,107.45-240,240s 107.45,240, 240,240s 240-107.45, 240-240S 382.55,10, 250,10z M 306.825,175.85L 270.75,175.85 c-4.25,0-9,5.625-9,13.1l0,26.050 l 45.1,0 l0,37.15 L 261.75,252.15 l0,111.525 L 219.15,363.675 l0-111.525 L 180.55,252.15 L 180.55,215.025 l 38.6,0 L 219.15,193.175 c0-31.35, 21.75-56.825, 51.6-56.825l 36.075,0 L 306.825,175.85 z" ></path></svg>