<?xml version="1.0" encoding="utf-8"?> <!-- Generator: IcoMoon.io --> <!DOCTYPE svg PUBLIC "-//W3C//DTD SVG 1.1//EN" "http://www.w3.org/Graphics/SVG/1.1/DTD/svg11.dtd"> <svg width="500.00000000000006" height="500" viewBox="0 0 500 500" data-tags="googleplus, social" style="margin-left: 2px; margin-top: 2px;" xmlns="http://www.w3.org/2000/svg" xmlns:xlink="http://www.w3.org/1999/xlink"><g><line x1="25" x2="25" y1="0" y2="500" stroke="#B35047"></line><line x1="50" x2="50" y1="0" y2="500" stroke="#B35047"></line><line x1="75" x2="75" y1="0" y2="500" stroke="#B35047"></line><line x1="100" x2="100" y1="0" y2="500" stroke="#B35047"></line><line x1="125" x2="125" y1="0" y2="500" stroke="#B35047"></line><line x1="150" x2="150" y1="0" y2="500" stroke="#B35047"></line><line x1="175" x2="175" y1="0" y2="500" stroke="#B35047"></line><line x1="200" x2="200" y1="0" y2="500" stroke="#B35047"></line><line x1="225" x2="225" y1="0" y2="500" stroke="#B35047"></line><line x1="250" x2="250" y1="0" y2="500" stroke="#B35047"></line><line x1="275" x2="275" y1="0" y2="500" stroke="#B35047"></line><line x1="300" x2="300" y1="0" y2="500" stroke="#B35047"></line><line x1="325" x2="325" y1="0" y2="500" stroke="#B35047"></line><line x1="350" x2="350" y1="0" y2="500" stroke="#B35047"></line><line x1="375" x2="375" y1="0" y2="500" stroke="#B35047"></line><line x1="400" x2="400" y1="0" y2="500" stroke="#B35047"></line><line x1="425" x2="425" y1="0" y2="500" stroke="#B35047"></line><line x1="450" x2="450" y1="0" y2="500" stroke="#B35047"></line><line x1="475" x2="475" y1="0" y2="500" stroke="#B35047"></line><line x1="0" x2="500" y1="25" y2="25" stroke="#B35047"></line><line x1="0" x2="500" y1="50" y2="50" stroke="#B35047"></line><line x1="0" x2="500" y1="75" y2="75" stroke="#B35047"></line><line x1="0" x2="500" y1="100" y2="100" stroke="#B35047"></line><line x1="0" x2="500" y1="125" y2="125" stroke="#B35047"></line><line x1="0" x2="500" y1="150" y2="150" stroke="#B35047"></line><line x1="0" x2="500" y1="175" y2="175" stroke="#B35047"></line><line x1="0" x2="500" y1="200" y2="200" stroke="#B35047"></line><line x1="0" x2="500" y1="225" y2="225" stroke="#B35047"></line><line x1="0" x2="500" y1="250" y2="250" stroke="#B35047"></line><line x1="0" x2="500" y1="275" y2="275" stroke="#B35047"></line><line x1="0" x2="500" y1="300" y2="300" stroke="#B35047"></line><line x1="0" x2="500" y1="325" y2="325" stroke="#B35047"></line><line x1="0" x2="500" y1="350" y2="350" stroke="#B35047"></line><line x1="0" x2="500" y1="375" y2="375" stroke="#B35047"></line><line x1="0" x2="500" y1="400" y2="400" stroke="#B35047"></line><line x1="0" x2="500" y1="425" y2="425" stroke="#B35047"></line><line x1="0" x2="500" y1="450" y2="450" stroke="#B35047"></line><line x1="0" x2="500" y1="475" y2="475" stroke="#B35047"></line><rect x="0" y="0" width="500" height="500" fill="none" stroke="#B35047"></rect></g><path d="M 227.425,182.125c-6.025-21.25-15.775-27.525-30.95-27.525c-1.625,0-3.275,0.225-4.85,0.65C 185.025,157.125, 179.825,162.625, 176.925,170.75 C 173.95,179, 173.75,187.625, 176.35,197.425c 4.6,17.5, 17.050,30.225, 29.625,30.225c 1.625,0, 3.275-0.225, 4.85-0.65 C 224.5,223.125, 233.1,202.175, 227.425,182.125z M 250,10c-132.55,0-240,107.45-240,240s 107.45,240, 240,240c 132.575,0, 240-107.45, 240-240 S 382.575,10, 250,10z M 236.175,353.050c-15.1,7.325-31.325,8.1-37.6,8.1c-1.2,0-1.875-0.025-1.975-0.025c0,0-0.475,0-1.225,0 c-9.8,0-58.575-2.25-58.575-46.675c0-43.65, 53.1-47.050, 69.375-47.050l 0.45,0 C 197.25,254.85, 199.2,242.2, 199.2,242.2 C 198.375,242.25, 197.15,242.3, 195.675,242.3c-6.15,0-17.975-0.975-28.125-7.55C 155.125,226.775, 148.825,213.15, 148.825,194.275 c0-53.275, 58.15-55.425, 58.75-55.45l 58.075,0 l0,1.275 c0,6.5-11.65,7.75-19.625,8.85C 243.325,149.325, 237.925,149.875, 236.375,150.65 c 14.725,7.85, 17.1,20.225, 17.1,38.625c0,20.925-8.2,32-16.9,39.8C 231.2,233.875, 226.95,237.7, 226.95,242.75 c0,4.95, 5.8,10.050, 12.55,15.975c 11.025,9.7, 26.15,22.975, 26.15,45.275C 265.65,327.050, 255.725,343.55, 236.175,353.050z M 363.175,249.775 l-37.9,0 l0,37.9 l-24,0 L 301.275,249.775 l-37.9,0 l0-24 l 37.9,0 L 301.275,187.9 l 24,0 l0,37.9 l 37.9,0 L 363.175,249.775 z M 205.575,278.775c-1.3,0-2.6,0.050-3.9,0.15 c-11.1,0.8-21.35,4.975-28.775,11.725c-7.35,6.65-11.075,15.025-10.55,23.525c 1.1,17.75, 20.2,28.175, 43.35,26.5 c 22.825-1.65, 38.025-14.775, 36.9-32.55C 241.525,291.4, 227,278.775, 205.575,278.775z" ></path></svg>