<?xml version="1.0" encoding="utf-8"?> <!-- Generator: IcoMoon.io --> <!DOCTYPE svg PUBLIC "-//W3C//DTD SVG 1.1//EN" "http://www.w3.org/Graphics/SVG/1.1/DTD/svg11.dtd"> <svg width="512" height="512" viewBox="0 0 512 512" data-tags="link" style="margin-left: 0px; margin-top: 0px;" xmlns="http://www.w3.org/2000/svg" xmlns:xlink="http://www.w3.org/1999/xlink"><g><line x1="32" x2="32" y1="0" y2="512" stroke="#B35047"></line><line x1="64" x2="64" y1="0" y2="512" stroke="#B35047"></line><line x1="96" x2="96" y1="0" y2="512" stroke="#B35047"></line><line x1="128" x2="128" y1="0" y2="512" stroke="#B35047"></line><line x1="160" x2="160" y1="0" y2="512" stroke="#B35047"></line><line x1="192" x2="192" y1="0" y2="512" stroke="#B35047"></line><line x1="224" x2="224" y1="0" y2="512" stroke="#B35047"></line><line x1="256" x2="256" y1="0" y2="512" stroke="#B35047"></line><line x1="288" x2="288" y1="0" y2="512" stroke="#B35047"></line><line x1="320" x2="320" y1="0" y2="512" stroke="#B35047"></line><line x1="352" x2="352" y1="0" y2="512" stroke="#B35047"></line><line x1="384" x2="384" y1="0" y2="512" stroke="#B35047"></line><line x1="416" x2="416" y1="0" y2="512" stroke="#B35047"></line><line x1="448" x2="448" y1="0" y2="512" stroke="#B35047"></line><line x1="480" x2="480" y1="0" y2="512" stroke="#B35047"></line><line x1="0" x2="512" y1="32" y2="32" stroke="#B35047"></line><line x1="0" x2="512" y1="64" y2="64" stroke="#B35047"></line><line x1="0" x2="512" y1="96" y2="96" stroke="#B35047"></line><line x1="0" x2="512" y1="128" y2="128" stroke="#B35047"></line><line x1="0" x2="512" y1="160" y2="160" stroke="#B35047"></line><line x1="0" x2="512" y1="192" y2="192" stroke="#B35047"></line><line x1="0" x2="512" y1="224" y2="224" stroke="#B35047"></line><line x1="0" x2="512" y1="256" y2="256" stroke="#B35047"></line><line x1="0" x2="512" y1="288" y2="288" stroke="#B35047"></line><line x1="0" x2="512" y1="320" y2="320" stroke="#B35047"></line><line x1="0" x2="512" y1="352" y2="352" stroke="#B35047"></line><line x1="0" x2="512" y1="384" y2="384" stroke="#B35047"></line><line x1="0" x2="512" y1="416" y2="416" stroke="#B35047"></line><line x1="0" x2="512" y1="448" y2="448" stroke="#B35047"></line><line x1="0" x2="512" y1="480" y2="480" stroke="#B35047"></line><rect x="0" y="0" width="512" height="512" fill="none" stroke="#B35047"></rect></g><g></g><path d="M 429.272,141.599l-65,112.581c-10.27,17.754-32.964,23.846-50.737,13.576l-16.064-9.286l 18.572-32.147 l0,0c 8.877,5.107, 20.243,2.080, 25.35-6.797l 46.429-80.415c 5.126-8.896, 2.080-20.243-6.779-25.369l-64.35-37.143 c-8.896-5.126-20.243-2.080-25.35,6.797l-46.429,80.415c-5.144,8.896-2.099,20.243, 6.779,25.369l-18.572,32.147l-16.064-9.286 c-17.773-10.251-23.864-32.964-13.594-50.719l 65-112.581c 10.27-17.773, 32.964-23.846, 50.737-13.594l 96.479,55.715C 433.451,101.114, 439.542,123.826, 429.272,141.599 z M 209.571,336.415c-8.896-5.126-11.941-16.492-6.797-25.369l 74.286-128.663c 5.126-8.896, 16.492-11.941, 25.369-6.797s 11.941,16.492, 6.779,25.369l-74.286,128.663 C 229.814,338.495, 218.467,341.522, 209.571,336.415z M 195.977,285.696L 195.977,285.696c-8.896-5.126-20.243-2.080-25.369,6.779l-46.429,80.415 c-5.126,8.896-2.080,20.243, 6.797,25.369l 64.35,37.143c 8.877,5.126, 20.243,2.080, 25.35-6.797l 46.429-80.415c 5.126-8.877, 2.080-20.243-6.779-25.369l0,0 l 18.572-32.147l 16.064,9.286c 17.773,10.251, 23.864,32.946, 13.594,50.719l-65,112.581c-10.27,17.773-32.964,23.846-50.737,13.594l-96.498-55.715 c-17.773-10.27-23.864-32.964-13.594-50.737l 65-112.581c 10.27-17.773, 32.983-23.864, 50.756-13.594l 16.064,9.286L 195.977,285.696z" ></path></svg>