<?xml version="1.0" encoding="utf-8"?> <!-- Generator: IcoMoon.io --> <!DOCTYPE svg PUBLIC "-//W3C//DTD SVG 1.1//EN" "http://www.w3.org/Graphics/SVG/1.1/DTD/svg11.dtd"> <svg width="500.00000000000006" height="500" viewBox="0 0 500 500" data-tags="plus, add, sum" style="margin-left: 0px; margin-top: 0px;" data-licenselink="http://creativecommons.org/licenses/by-sa/3.0/" data-license="CC BY-SA 3.0" data-authorlink="http://danielbruce.se/" data-author="Daniel Bruce" class="metadata" xmlns="http://www.w3.org/2000/svg" xmlns:xlink="http://www.w3.org/1999/xlink"><g><line x1="20" x2="20" y1="0" y2="500" stroke="#B35047"></line><line x1="40" x2="40" y1="0" y2="500" stroke="#B35047"></line><line x1="60" x2="60" y1="0" y2="500" stroke="#B35047"></line><line x1="80" x2="80" y1="0" y2="500" stroke="#B35047"></line><line x1="100" x2="100" y1="0" y2="500" stroke="#B35047"></line><line x1="120" x2="120" y1="0" y2="500" stroke="#B35047"></line><line x1="140" x2="140" y1="0" y2="500" stroke="#B35047"></line><line x1="160" x2="160" y1="0" y2="500" stroke="#B35047"></line><line x1="180" x2="180" y1="0" y2="500" stroke="#B35047"></line><line x1="200" x2="200" y1="0" y2="500" stroke="#B35047"></line><line x1="220" x2="220" y1="0" y2="500" stroke="#B35047"></line><line x1="240" x2="240" y1="0" y2="500" stroke="#B35047"></line><line x1="260" x2="260" y1="0" y2="500" stroke="#B35047"></line><line x1="280" x2="280" y1="0" y2="500" stroke="#B35047"></line><line x1="300" x2="300" y1="0" y2="500" stroke="#B35047"></line><line x1="320" x2="320" y1="0" y2="500" stroke="#B35047"></line><line x1="340" x2="340" y1="0" y2="500" stroke="#B35047"></line><line x1="360" x2="360" y1="0" y2="500" stroke="#B35047"></line><line x1="380" x2="380" y1="0" y2="500" stroke="#B35047"></line><line x1="400" x2="400" y1="0" y2="500" stroke="#B35047"></line><line x1="420" x2="420" y1="0" y2="500" stroke="#B35047"></line><line x1="440" x2="440" y1="0" y2="500" stroke="#B35047"></line><line x1="460" x2="460" y1="0" y2="500" stroke="#B35047"></line><line x1="480" x2="480" y1="0" y2="500" stroke="#B35047"></line><line x1="0" x2="500" y1="20" y2="20" stroke="#B35047"></line><line x1="0" x2="500" y1="40" y2="40" stroke="#B35047"></line><line x1="0" x2="500" y1="60" y2="60" stroke="#B35047"></line><line x1="0" x2="500" y1="80" y2="80" stroke="#B35047"></line><line x1="0" x2="500" y1="100" y2="100" stroke="#B35047"></line><line x1="0" x2="500" y1="120" y2="120" stroke="#B35047"></line><line x1="0" x2="500" y1="140" y2="140" stroke="#B35047"></line><line x1="0" x2="500" y1="160" y2="160" stroke="#B35047"></line><line x1="0" x2="500" y1="180" y2="180" stroke="#B35047"></line><line x1="0" x2="500" y1="200" y2="200" stroke="#B35047"></line><line x1="0" x2="500" y1="220" y2="220" stroke="#B35047"></line><line x1="0" x2="500" y1="240" y2="240" stroke="#B35047"></line><line x1="0" x2="500" y1="260" y2="260" stroke="#B35047"></line><line x1="0" x2="500" y1="280" y2="280" stroke="#B35047"></line><line x1="0" x2="500" y1="300" y2="300" stroke="#B35047"></line><line x1="0" x2="500" y1="320" y2="320" stroke="#B35047"></line><line x1="0" x2="500" y1="340" y2="340" stroke="#B35047"></line><line x1="0" x2="500" y1="360" y2="360" stroke="#B35047"></line><line x1="0" x2="500" y1="380" y2="380" stroke="#B35047"></line><line x1="0" x2="500" y1="400" y2="400" stroke="#B35047"></line><line x1="0" x2="500" y1="420" y2="420" stroke="#B35047"></line><line x1="0" x2="500" y1="440" y2="440" stroke="#B35047"></line><line x1="0" x2="500" y1="460" y2="460" stroke="#B35047"></line><line x1="0" x2="500" y1="480" y2="480" stroke="#B35047"></line><rect x="0" y="0" width="500" height="500" fill="none" stroke="#B35047"></rect></g><path d="M 424.794,216.38l-141.206,0 L 283.587,75.172 c0-18.558-15.029-20.172-33.62-20.172c-18.558,0-33.62,1.581-33.62,20.172L 216.345,216.38 L 75.172,216.38 c-18.593,0-20.172,15.062-20.172,33.62s 1.581,33.62, 20.172,33.62l 141.173,0 l0,141.206 c0,18.558, 15.062,20.172, 33.62,20.172c 18.593,0, 33.62-1.613, 33.62-20.172L 283.587,283.62 l 141.206,0 c 18.593,0, 20.206-15.062, 20.206-33.62S 443.387,216.38, 424.794,216.38z" ></path></svg>