<?xml version="1.0" encoding="utf-8"?> <!-- Generator: IcoMoon.io --> <!DOCTYPE svg PUBLIC "-//W3C//DTD SVG 1.1//EN" "http://www.w3.org/Graphics/SVG/1.1/DTD/svg11.dtd"> <svg width="832" height="896" viewBox="0 0 832 896" data-du="" data-tags="search, magnifier, lookup, find" style="margin-left: 5px; margin-top: 4px;" xmlns="http://www.w3.org/2000/svg" xmlns:xlink="http://www.w3.org/1999/xlink"><g><line x1="64" x2="64" y1="0" y2="896" stroke="#B35047"></line><line x1="128" x2="128" y1="0" y2="896" stroke="#B35047"></line><line x1="192" x2="192" y1="0" y2="896" stroke="#B35047"></line><line x1="256" x2="256" y1="0" y2="896" stroke="#B35047"></line><line x1="320" x2="320" y1="0" y2="896" stroke="#B35047"></line><line x1="384" x2="384" y1="0" y2="896" stroke="#B35047"></line><line x1="448" x2="448" y1="0" y2="896" stroke="#B35047"></line><line x1="512" x2="512" y1="0" y2="896" stroke="#B35047"></line><line x1="576" x2="576" y1="0" y2="896" stroke="#B35047"></line><line x1="640" x2="640" y1="0" y2="896" stroke="#B35047"></line><line x1="704" x2="704" y1="0" y2="896" stroke="#B35047"></line><line x1="768" x2="768" y1="0" y2="896" stroke="#B35047"></line><line x1="0" x2="832" y1="64" y2="64" stroke="#B35047"></line><line x1="0" x2="832" y1="128" y2="128" stroke="#B35047"></line><line x1="0" x2="832" y1="192" y2="192" stroke="#B35047"></line><line x1="0" x2="832" y1="256" y2="256" stroke="#B35047"></line><line x1="0" x2="832" y1="320" y2="320" stroke="#B35047"></line><line x1="0" x2="832" y1="384" y2="384" stroke="#B35047"></line><line x1="0" x2="832" y1="448" y2="448" stroke="#B35047"></line><line x1="0" x2="832" y1="512" y2="512" stroke="#B35047"></line><line x1="0" x2="832" y1="576" y2="576" stroke="#B35047"></line><line x1="0" x2="832" y1="640" y2="640" stroke="#B35047"></line><line x1="0" x2="832" y1="704" y2="704" stroke="#B35047"></line><line x1="0" x2="832" y1="768" y2="768" stroke="#B35047"></line><line x1="0" x2="832" y1="832" y2="832" stroke="#B35047"></line><rect x="0" y="0" width="832" height="896" fill="none" stroke="#B35047"></rect></g><path d="M 576,416q0-92.5 -65.75-158.25t-158.25-65.75t-158.25,65.75t-65.75,158.25t 65.75,158.25t 158.25,65.75t 158.25-65.75t 65.75-158.25zM 832,832q0,26 -19,45t-45,19q-27,0 -45-19l-171.5-171q-89.5,62 -199.5,62q-71.5,0 -136.75-27.75t-112.5-75t-75-112.5t-27.75-136.75 t 27.75-136.75t 75-112.5t 112.5-75t 136.75-27.75t 136.75,27.75t 112.5,75t 75,112.5t 27.75,136.75q0,110 -62,199.5l 171.5,171.5q 18.5,18.5 18.5,45z" ></path></svg>