<?xml version="1.0" encoding="utf-8"?> <!-- Generator: IcoMoon.io --> <!DOCTYPE svg PUBLIC "-//W3C//DTD SVG 1.1//EN" "http://www.w3.org/Graphics/SVG/1.1/DTD/svg11.dtd"> <svg width="512" height="512" viewBox="0 0 512 512" data-tags="smiley, emoticon, happy" style="margin-left: 2px; margin-top: 2px;" xmlns="http://www.w3.org/2000/svg" xmlns:xlink="http://www.w3.org/1999/xlink"><g><line x1="16" x2="16" y1="0" y2="512" stroke="#B35047"></line><line x1="32" x2="32" y1="0" y2="512" stroke="#B35047"></line><line x1="48" x2="48" y1="0" y2="512" stroke="#B35047"></line><line x1="64" x2="64" y1="0" y2="512" stroke="#B35047"></line><line x1="80" x2="80" y1="0" y2="512" stroke="#B35047"></line><line x1="96" x2="96" y1="0" y2="512" stroke="#B35047"></line><line x1="112" x2="112" y1="0" y2="512" stroke="#B35047"></line><line x1="128" x2="128" y1="0" y2="512" stroke="#B35047"></line><line x1="144" x2="144" y1="0" y2="512" stroke="#B35047"></line><line x1="160" x2="160" y1="0" y2="512" stroke="#B35047"></line><line x1="176" x2="176" y1="0" y2="512" stroke="#B35047"></line><line x1="192" x2="192" y1="0" y2="512" stroke="#B35047"></line><line x1="208" x2="208" y1="0" y2="512" stroke="#B35047"></line><line x1="224" x2="224" y1="0" y2="512" stroke="#B35047"></line><line x1="240" x2="240" y1="0" y2="512" stroke="#B35047"></line><line x1="256" x2="256" y1="0" y2="512" stroke="#B35047"></line><line x1="272" x2="272" y1="0" y2="512" stroke="#B35047"></line><line x1="288" x2="288" y1="0" y2="512" stroke="#B35047"></line><line x1="304" x2="304" y1="0" y2="512" stroke="#B35047"></line><line x1="320" x2="320" y1="0" y2="512" stroke="#B35047"></line><line x1="336" x2="336" y1="0" y2="512" stroke="#B35047"></line><line x1="352" x2="352" y1="0" y2="512" stroke="#B35047"></line><line x1="368" x2="368" y1="0" y2="512" stroke="#B35047"></line><line x1="384" x2="384" y1="0" y2="512" stroke="#B35047"></line><line x1="400" x2="400" y1="0" y2="512" stroke="#B35047"></line><line x1="416" x2="416" y1="0" y2="512" stroke="#B35047"></line><line x1="432" x2="432" y1="0" y2="512" stroke="#B35047"></line><line x1="448" x2="448" y1="0" y2="512" stroke="#B35047"></line><line x1="464" x2="464" y1="0" y2="512" stroke="#B35047"></line><line x1="480" x2="480" y1="0" y2="512" stroke="#B35047"></line><line x1="496" x2="496" y1="0" y2="512" stroke="#B35047"></line><line x1="0" x2="512" y1="16" y2="16" stroke="#B35047"></line><line x1="0" x2="512" y1="32" y2="32" stroke="#B35047"></line><line x1="0" x2="512" y1="48" y2="48" stroke="#B35047"></line><line x1="0" x2="512" y1="64" y2="64" stroke="#B35047"></line><line x1="0" x2="512" y1="80" y2="80" stroke="#B35047"></line><line x1="0" x2="512" y1="96" y2="96" stroke="#B35047"></line><line x1="0" x2="512" y1="112" y2="112" stroke="#B35047"></line><line x1="0" x2="512" y1="128" y2="128" stroke="#B35047"></line><line x1="0" x2="512" y1="144" y2="144" stroke="#B35047"></line><line x1="0" x2="512" y1="160" y2="160" stroke="#B35047"></line><line x1="0" x2="512" y1="176" y2="176" stroke="#B35047"></line><line x1="0" x2="512" y1="192" y2="192" stroke="#B35047"></line><line x1="0" x2="512" y1="208" y2="208" stroke="#B35047"></line><line x1="0" x2="512" y1="224" y2="224" stroke="#B35047"></line><line x1="0" x2="512" y1="240" y2="240" stroke="#B35047"></line><line x1="0" x2="512" y1="256" y2="256" stroke="#B35047"></line><line x1="0" x2="512" y1="272" y2="272" stroke="#B35047"></line><line x1="0" x2="512" y1="288" y2="288" stroke="#B35047"></line><line x1="0" x2="512" y1="304" y2="304" stroke="#B35047"></line><line x1="0" x2="512" y1="320" y2="320" stroke="#B35047"></line><line x1="0" x2="512" y1="336" y2="336" stroke="#B35047"></line><line x1="0" x2="512" y1="352" y2="352" stroke="#B35047"></line><line x1="0" x2="512" y1="368" y2="368" stroke="#B35047"></line><line x1="0" x2="512" y1="384" y2="384" stroke="#B35047"></line><line x1="0" x2="512" y1="400" y2="400" stroke="#B35047"></line><line x1="0" x2="512" y1="416" y2="416" stroke="#B35047"></line><line x1="0" x2="512" y1="432" y2="432" stroke="#B35047"></line><line x1="0" x2="512" y1="448" y2="448" stroke="#B35047"></line><line x1="0" x2="512" y1="464" y2="464" stroke="#B35047"></line><line x1="0" x2="512" y1="480" y2="480" stroke="#B35047"></line><line x1="0" x2="512" y1="496" y2="496" stroke="#B35047"></line><rect x="0" y="0" width="512" height="512" fill="none" stroke="#B35047"></rect></g><path d="M 256,64C 149.952,64, 64,149.968, 64,256s 85.952,192, 192,192c 106.032,0, 192-85.968, 192-192 S 362.032,64, 256,64z M 320,156.992c 13.248,0, 24,14.336, 24,32s-10.752,32-24,32s-24-14.336-24-32S 306.752,156.992, 320,156.992z M 190.8,157.2 c 13.248,0, 24,14.336, 24,32s-10.752,32-24,32s-24-14.336-24-32S 177.552,157.2, 190.8,157.2z M 254,372.992 c-65.68,0-109.712-42.992-117.632-114.496l 15.504,0 c 12.56,55.328, 46.56,83.008, 102,83.008s 89.44-27.664, 102-83.008l 16,0 C 363.968,330.016, 319.68,372.992, 254,372.992z" ></path></svg>