<?xml version="1.0" encoding="utf-8"?> <!-- Generator: IcoMoon.io --> <!DOCTYPE svg PUBLIC "-//W3C//DTD SVG 1.1//EN" "http://www.w3.org/Graphics/SVG/1.1/DTD/svg11.dtd"> <svg width="500.00000000000006" height="500" viewBox="0 0 500 500" data-tags="twitter, social" style="margin-left: 2px; margin-top: 2px;" xmlns="http://www.w3.org/2000/svg" xmlns:xlink="http://www.w3.org/1999/xlink"><g><line x1="25" x2="25" y1="0" y2="500" stroke="#B35047"></line><line x1="50" x2="50" y1="0" y2="500" stroke="#B35047"></line><line x1="75" x2="75" y1="0" y2="500" stroke="#B35047"></line><line x1="100" x2="100" y1="0" y2="500" stroke="#B35047"></line><line x1="125" x2="125" y1="0" y2="500" stroke="#B35047"></line><line x1="150" x2="150" y1="0" y2="500" stroke="#B35047"></line><line x1="175" x2="175" y1="0" y2="500" stroke="#B35047"></line><line x1="200" x2="200" y1="0" y2="500" stroke="#B35047"></line><line x1="225" x2="225" y1="0" y2="500" stroke="#B35047"></line><line x1="250" x2="250" y1="0" y2="500" stroke="#B35047"></line><line x1="275" x2="275" y1="0" y2="500" stroke="#B35047"></line><line x1="300" x2="300" y1="0" y2="500" stroke="#B35047"></line><line x1="325" x2="325" y1="0" y2="500" stroke="#B35047"></line><line x1="350" x2="350" y1="0" y2="500" stroke="#B35047"></line><line x1="375" x2="375" y1="0" y2="500" stroke="#B35047"></line><line x1="400" x2="400" y1="0" y2="500" stroke="#B35047"></line><line x1="425" x2="425" y1="0" y2="500" stroke="#B35047"></line><line x1="450" x2="450" y1="0" y2="500" stroke="#B35047"></line><line x1="475" x2="475" y1="0" y2="500" stroke="#B35047"></line><line x1="0" x2="500" y1="25" y2="25" stroke="#B35047"></line><line x1="0" x2="500" y1="50" y2="50" stroke="#B35047"></line><line x1="0" x2="500" y1="75" y2="75" stroke="#B35047"></line><line x1="0" x2="500" y1="100" y2="100" stroke="#B35047"></line><line x1="0" x2="500" y1="125" y2="125" stroke="#B35047"></line><line x1="0" x2="500" y1="150" y2="150" stroke="#B35047"></line><line x1="0" x2="500" y1="175" y2="175" stroke="#B35047"></line><line x1="0" x2="500" y1="200" y2="200" stroke="#B35047"></line><line x1="0" x2="500" y1="225" y2="225" stroke="#B35047"></line><line x1="0" x2="500" y1="250" y2="250" stroke="#B35047"></line><line x1="0" x2="500" y1="275" y2="275" stroke="#B35047"></line><line x1="0" x2="500" y1="300" y2="300" stroke="#B35047"></line><line x1="0" x2="500" y1="325" y2="325" stroke="#B35047"></line><line x1="0" x2="500" y1="350" y2="350" stroke="#B35047"></line><line x1="0" x2="500" y1="375" y2="375" stroke="#B35047"></line><line x1="0" x2="500" y1="400" y2="400" stroke="#B35047"></line><line x1="0" x2="500" y1="425" y2="425" stroke="#B35047"></line><line x1="0" x2="500" y1="450" y2="450" stroke="#B35047"></line><line x1="0" x2="500" y1="475" y2="475" stroke="#B35047"></line><rect x="0" y="0" width="500" height="500" fill="none" stroke="#B35047"></rect></g><path d="M 250,10c-132.55,0-240,107.45-240,240s 107.45,240, 240,240s 240-107.45, 240-240S 382.55,10, 250,10z M 347.6,206.625 c 0.1,2.025, 0.15,4.075, 0.15,6.125c0,62.45-47.55,134.475-134.5,134.475c-26.675,0-51.55-7.8-72.45-21.25 c 3.7,0.45, 7.475,0.65, 11.275,0.65c 22.15,0, 42.525-7.55, 58.725-20.25c-20.675-0.375-38.15-14.050-44.175-32.8 c 2.875,0.55, 5.85,0.85, 8.875,0.85c 4.325,0, 8.5-0.575, 12.45-1.65c-21.6-4.35-37.925-23.45-37.925-46.35 c0-0.2,0-0.4, 0.025-0.575C 156.425,229.375, 163.725,231.5, 171.45,231.75C 158.8,223.275, 150.45,208.825, 150.45,192.4 c0-8.675, 2.325-16.8, 6.4-23.775C 180.15,197.25, 215,216.075, 254.275,218.025c-0.8-3.45-1.225-7.050-1.225-10.775 c0-26.1, 21.175-47.275, 47.275-47.275c 13.6,0, 25.875,5.725, 34.5,14.925c 10.775-2.1, 20.9-6.025, 30.025-11.45 c-3.55,11.025-11.025,20.3-20.8,26.15c 9.575-1.15, 18.675-3.675, 27.15-7.45C 364.875,191.625, 356.825,199.95, 347.6,206.625z" ></path></svg>