<?xml version="1.0" encoding="utf-8"?> <!-- Generator: IcoMoon.io --> <!DOCTYPE svg PUBLIC "-//W3C//DTD SVG 1.1//EN" "http://www.w3.org/Graphics/SVG/1.1/DTD/svg11.dtd"> <svg width="500.00000000000006" height="500" viewBox="0 0 500 500" data-tags="user-add" style="margin-left: 0px; margin-top: 0px;" xmlns="http://www.w3.org/2000/svg" xmlns:xlink="http://www.w3.org/1999/xlink"><g><line x1="25" x2="25" y1="0" y2="500" stroke="#B35047"></line><line x1="50" x2="50" y1="0" y2="500" stroke="#B35047"></line><line x1="75" x2="75" y1="0" y2="500" stroke="#B35047"></line><line x1="100" x2="100" y1="0" y2="500" stroke="#B35047"></line><line x1="125" x2="125" y1="0" y2="500" stroke="#B35047"></line><line x1="150" x2="150" y1="0" y2="500" stroke="#B35047"></line><line x1="175" x2="175" y1="0" y2="500" stroke="#B35047"></line><line x1="200" x2="200" y1="0" y2="500" stroke="#B35047"></line><line x1="225" x2="225" y1="0" y2="500" stroke="#B35047"></line><line x1="250" x2="250" y1="0" y2="500" stroke="#B35047"></line><line x1="275" x2="275" y1="0" y2="500" stroke="#B35047"></line><line x1="300" x2="300" y1="0" y2="500" stroke="#B35047"></line><line x1="325" x2="325" y1="0" y2="500" stroke="#B35047"></line><line x1="350" x2="350" y1="0" y2="500" stroke="#B35047"></line><line x1="375" x2="375" y1="0" y2="500" stroke="#B35047"></line><line x1="400" x2="400" y1="0" y2="500" stroke="#B35047"></line><line x1="425" x2="425" y1="0" y2="500" stroke="#B35047"></line><line x1="450" x2="450" y1="0" y2="500" stroke="#B35047"></line><line x1="475" x2="475" y1="0" y2="500" stroke="#B35047"></line><line x1="0" x2="500" y1="25" y2="25" stroke="#B35047"></line><line x1="0" x2="500" y1="50" y2="50" stroke="#B35047"></line><line x1="0" x2="500" y1="75" y2="75" stroke="#B35047"></line><line x1="0" x2="500" y1="100" y2="100" stroke="#B35047"></line><line x1="0" x2="500" y1="125" y2="125" stroke="#B35047"></line><line x1="0" x2="500" y1="150" y2="150" stroke="#B35047"></line><line x1="0" x2="500" y1="175" y2="175" stroke="#B35047"></line><line x1="0" x2="500" y1="200" y2="200" stroke="#B35047"></line><line x1="0" x2="500" y1="225" y2="225" stroke="#B35047"></line><line x1="0" x2="500" y1="250" y2="250" stroke="#B35047"></line><line x1="0" x2="500" y1="275" y2="275" stroke="#B35047"></line><line x1="0" x2="500" y1="300" y2="300" stroke="#B35047"></line><line x1="0" x2="500" y1="325" y2="325" stroke="#B35047"></line><line x1="0" x2="500" y1="350" y2="350" stroke="#B35047"></line><line x1="0" x2="500" y1="375" y2="375" stroke="#B35047"></line><line x1="0" x2="500" y1="400" y2="400" stroke="#B35047"></line><line x1="0" x2="500" y1="425" y2="425" stroke="#B35047"></line><line x1="0" x2="500" y1="450" y2="450" stroke="#B35047"></line><line x1="0" x2="500" y1="475" y2="475" stroke="#B35047"></line><rect x="0" y="0" width="500" height="500" fill="none" stroke="#B35047"></rect></g><path d="M 309.425,361.2C 247.15,338.75, 227.25,319.8, 227.25,279.225c0-24.35, 19.025-16.4, 27.375-61c 3.475-18.5, 20.275-0.3, 23.45-42.525 c0-16.825-9.15-21.025-9.15-21.025s 4.675-24.925, 6.475-44.075C 277.65,86.7, 261.45,25, 175,25S 72.35,86.7, 74.6,110.6 c 1.825,19.175, 6.5,44.075, 6.5,44.075S 71.925,158.85, 71.925,175.7c 3.225,42.225, 20.025,24.025, 23.45,42.525 c 8.375,44.6, 27.4,36.65, 27.4,61c0,40.575-19.925,59.525-82.2,81.975c-7.5,2.675-25.375,6.875-40.575,13.45L0,475 l 400,0 c0,0,0-36.975,0-52.625S 371.925,383.725, 309.425,361.2z M 425,225L 425,150 l-50,0 l0,75 l-75,0 l0,50 l 75,0 l0,75 l 50,0 l0-75 l 75,0 L 500,225 L 425,225 z" ></path></svg>