<?xml version="1.0" encoding="utf-8"?> <!-- Generator: IcoMoon.io --> <!DOCTYPE svg PUBLIC "-//W3C//DTD SVG 1.1//EN" "http://www.w3.org/Graphics/SVG/1.1/DTD/svg11.dtd"> <svg width="572" height="512" viewBox="0 0 572 512" data-tags="volume, speaker, sound, loud" style="margin-left: -2px; margin-top: 0px;" xmlns="http://www.w3.org/2000/svg" xmlns:xlink="http://www.w3.org/1999/xlink"><g><line x1="16" x2="16" y1="0" y2="512" stroke="#B35047"></line><line x1="32" x2="32" y1="0" y2="512" stroke="#B35047"></line><line x1="48" x2="48" y1="0" y2="512" stroke="#B35047"></line><line x1="64" x2="64" y1="0" y2="512" stroke="#B35047"></line><line x1="80" x2="80" y1="0" y2="512" stroke="#B35047"></line><line x1="96" x2="96" y1="0" y2="512" stroke="#B35047"></line><line x1="112" x2="112" y1="0" y2="512" stroke="#B35047"></line><line x1="128" x2="128" y1="0" y2="512" stroke="#B35047"></line><line x1="144" x2="144" y1="0" y2="512" stroke="#B35047"></line><line x1="160" x2="160" y1="0" y2="512" stroke="#B35047"></line><line x1="176" x2="176" y1="0" y2="512" stroke="#B35047"></line><line x1="192" x2="192" y1="0" y2="512" stroke="#B35047"></line><line x1="208" x2="208" y1="0" y2="512" stroke="#B35047"></line><line x1="224" x2="224" y1="0" y2="512" stroke="#B35047"></line><line x1="240" x2="240" y1="0" y2="512" stroke="#B35047"></line><line x1="256" x2="256" y1="0" y2="512" stroke="#B35047"></line><line x1="272" x2="272" y1="0" y2="512" stroke="#B35047"></line><line x1="288" x2="288" y1="0" y2="512" stroke="#B35047"></line><line x1="304" x2="304" y1="0" y2="512" stroke="#B35047"></line><line x1="320" x2="320" y1="0" y2="512" stroke="#B35047"></line><line x1="336" x2="336" y1="0" y2="512" stroke="#B35047"></line><line x1="352" x2="352" y1="0" y2="512" stroke="#B35047"></line><line x1="368" x2="368" y1="0" y2="512" stroke="#B35047"></line><line x1="384" x2="384" y1="0" y2="512" stroke="#B35047"></line><line x1="400" x2="400" y1="0" y2="512" stroke="#B35047"></line><line x1="416" x2="416" y1="0" y2="512" stroke="#B35047"></line><line x1="432" x2="432" y1="0" y2="512" stroke="#B35047"></line><line x1="448" x2="448" y1="0" y2="512" stroke="#B35047"></line><line x1="464" x2="464" y1="0" y2="512" stroke="#B35047"></line><line x1="480" x2="480" y1="0" y2="512" stroke="#B35047"></line><line x1="496" x2="496" y1="0" y2="512" stroke="#B35047"></line><line x1="512" x2="512" y1="0" y2="512" stroke="#B35047"></line><line x1="528" x2="528" y1="0" y2="512" stroke="#B35047"></line><line x1="544" x2="544" y1="0" y2="512" stroke="#B35047"></line><line x1="560" x2="560" y1="0" y2="512" stroke="#B35047"></line><line x1="0" x2="572" y1="16" y2="16" stroke="#B35047"></line><line x1="0" x2="572" y1="32" y2="32" stroke="#B35047"></line><line x1="0" x2="572" y1="48" y2="48" stroke="#B35047"></line><line x1="0" x2="572" y1="64" y2="64" stroke="#B35047"></line><line x1="0" x2="572" y1="80" y2="80" stroke="#B35047"></line><line x1="0" x2="572" y1="96" y2="96" stroke="#B35047"></line><line x1="0" x2="572" y1="112" y2="112" stroke="#B35047"></line><line x1="0" x2="572" y1="128" y2="128" stroke="#B35047"></line><line x1="0" x2="572" y1="144" y2="144" stroke="#B35047"></line><line x1="0" x2="572" y1="160" y2="160" stroke="#B35047"></line><line x1="0" x2="572" y1="176" y2="176" stroke="#B35047"></line><line x1="0" x2="572" y1="192" y2="192" stroke="#B35047"></line><line x1="0" x2="572" y1="208" y2="208" stroke="#B35047"></line><line x1="0" x2="572" y1="224" y2="224" stroke="#B35047"></line><line x1="0" x2="572" y1="240" y2="240" stroke="#B35047"></line><line x1="0" x2="572" y1="256" y2="256" stroke="#B35047"></line><line x1="0" x2="572" y1="272" y2="272" stroke="#B35047"></line><line x1="0" x2="572" y1="288" y2="288" stroke="#B35047"></line><line x1="0" x2="572" y1="304" y2="304" stroke="#B35047"></line><line x1="0" x2="572" y1="320" y2="320" stroke="#B35047"></line><line x1="0" x2="572" y1="336" y2="336" stroke="#B35047"></line><line x1="0" x2="572" y1="352" y2="352" stroke="#B35047"></line><line x1="0" x2="572" y1="368" y2="368" stroke="#B35047"></line><line x1="0" x2="572" y1="384" y2="384" stroke="#B35047"></line><line x1="0" x2="572" y1="400" y2="400" stroke="#B35047"></line><line x1="0" x2="572" y1="416" y2="416" stroke="#B35047"></line><line x1="0" x2="572" y1="432" y2="432" stroke="#B35047"></line><line x1="0" x2="572" y1="448" y2="448" stroke="#B35047"></line><line x1="0" x2="572" y1="464" y2="464" stroke="#B35047"></line><line x1="0" x2="572" y1="480" y2="480" stroke="#B35047"></line><line x1="0" x2="572" y1="496" y2="496" stroke="#B35047"></line><rect x="0" y="0" width="572" height="512" fill="none" stroke="#B35047"></rect></g><path d="M 378.35,169.412l-15.825,32.272c 15.137,12.979, 24.728,32.24, 24.728,53.723 c0,23.689-5.371,45.108-23.225,57.959l 15.297,27.285c 23.353-20.955, 38.059-51.358, 38.059-85.213C 417.367,221.154, 402.262,190.368, 378.35,169.412z M 495.803,56.403l-22.266,27.014c 41.527,45.332, 67.806,105.736, 67.806,172.056c0,66.207-26.23,126.532-67.614,171.848l 22.234,27.573 c 47.362-53.324, 76.054-122.248, 76.054-199.421C 572,178.507, 542.94,109.695, 495.803,56.403z M 436.724,111.597l-19.821,28.5 c 29.443,29.571, 48.113,70.331, 48.113,115.359c0,45.939-19.421,87.418-49.919,117.149l 20.604,27.349c 36.844-37.627, 59.030-87.658, 59.030-144.483 C 494.732,199.703, 472.386,149.048, 436.724,111.597z M0,192.174l0,129.313 c0,16.48, 14.322,37.627, 31.969,37.627l 96.338,0 L 128.306,152.293 L 31.969,152.293 C 14.322,152.293,0,175.71,0,192.174z M 277.185,58.097L 143.22,150.439l0,211.793 l 133.965,93.349c 17.647,0, 42.966-13.363, 42.966-29.843L 320.151,87.94 C 320.151,71.46, 294.831,58.097, 277.185,58.097z" ></path></svg>